<svg xmlns="http://www.w3.org/2000/svg" viewBox="0 0 1000 1000">
  <defs>
    <style>
      .cls-1 {
        fill: #389826;
      }

      .cls-2 {
        fill: #9558b2;
      }

      .cls-3 {
        fill: #4063d8;
      }

      .cls-4 {
        fill: #cb3c33;
      }
    </style>
  </defs>
  <g id="分割线">
    <rect class="cls-1" x="0" y="0" width="125" height="125"/>
    <rect class="cls-1" x="0" y="125" width="125" height="125"/>
    <rect class="cls-1" x="0" y="250" width="125" height="125"/>
    <rect class="cls-1" x="125" y="0" width="125" height="125"/>
    <rect class="cls-1" x="125" y="125" width="125" height="125"/>
    <rect class="cls-1" x="250" y="0" width="125" height="125"/>
    <rect class="cls-1" x="250" y="125" width="125" height="125"/>
    <rect class="cls-1" x="375" y="0" width="125" height="125"/>
    <rect class="cls-1" x="375" y="125" width="125" height="125"/>
    <rect class="cls-1" x="500" y="0" width="125" height="125"/>
    <rect class="cls-1" x="500" y="125" width="125" height="125"/>
    <rect class="cls-1" x="625" y="0" width="125" height="125"/>
    <rect class="cls-1" x="625" y="125" width="125" height="125"/>
    <rect class="cls-1" x="125" y="250" width="125" height="125"/>
    <rect class="cls-2" x="0" y="375" width="125" height="125"/>
    <rect class="cls-2" x="125" y="375" width="125" height="125"/>
    <rect class="cls-2" x="0" y="500" width="125" height="125"/>
    <rect class="cls-2" x="125" y="500" width="125" height="125"/>
    <rect class="cls-2" x="0" y="625" width="125" height="125"/>
    <rect class="cls-2" x="125" y="625" width="125" height="125"/>
    <rect class="cls-2" x="0" y="750" width="125" height="125"/>
    <rect class="cls-2" x="125" y="750" width="125" height="125"/>
    <rect class="cls-2" x="0" y="875" width="125" height="125"/>
    <rect class="cls-2" x="125" y="875" width="125" height="125"/>
    <rect class="cls-2" x="250" y="625" width="125" height="125"/>
    <rect class="cls-2" x="375" y="625" width="125" height="125"/>
    <rect class="cls-2" x="250" y="750" width="125" height="125"/>
    <rect class="cls-2" x="375" y="750" width="125" height="125"/>
    <rect class="cls-2" x="250" y="875" width="125" height="125"/>
    <rect class="cls-2" x="375" y="875" width="125" height="125"/>
    <rect class="cls-2" x="500" y="625" width="125" height="125"/>
    <rect class="cls-2" x="500" y="750" width="125" height="125"/>
    <rect class="cls-2" x="500" y="875" width="125" height="125"/>
    <rect class="cls-3" x="500" y="500" width="125" height="125"/>
    <rect class="cls-3" x="625" y="500" width="125" height="125"/>
    <rect class="cls-3" x="750" y="500" width="125" height="125"/>
    <rect class="cls-3" x="875" y="500" width="125" height="125"/>
    <rect class="cls-3" x="625" y="625" width="125" height="125"/>
    <rect class="cls-3" x="750" y="625" width="125" height="125"/>
    <rect class="cls-3" x="875" y="625" width="125" height="125"/>
    <rect class="cls-3" x="625" y="750" width="125" height="125"/>
    <rect class="cls-3" x="750" y="750" width="125" height="125"/>
    <rect class="cls-3" x="875" y="750" width="125" height="125"/>
    <rect class="cls-3" x="625" y="875" width="125" height="125"/>
    <rect class="cls-3" x="750" y="875" width="125" height="125"/>
    <rect class="cls-3" x="875" y="875" width="125" height="125"/>
    <rect class="cls-4" x="875" y="0" width="125" height="125"/>
    <rect class="cls-4" x="750" y="0" width="125" height="125"/>
    <rect class="cls-4" x="875" y="125" width="125" height="125"/>
    <rect class="cls-4" x="750" y="125" width="125" height="125"/>
    <rect class="cls-4" x="875" y="250" width="125" height="125"/>
    <rect class="cls-4" x="750" y="250" width="125" height="125"/>
    <rect class="cls-4" x="875" y="375" width="125" height="125"/>
    <rect class="cls-4" x="750" y="375" width="125" height="125"/>
    <rect class="cls-4" x="625" y="250" width="125" height="125"/>
    <rect class="cls-4" x="500" y="250" width="125" height="125"/>
    <rect class="cls-4" x="625" y="375" width="125" height="125"/>
    <rect class="cls-4" x="500" y="375" width="125" height="125"/>
    <rect class="cls-4" x="375" y="250" width="125" height="125"/>
    <rect class="cls-4" x="250" y="250" width="125" height="125"/>
    <rect class="cls-4" x="375" y="375" width="125" height="125"/>
    <rect class="cls-4" x="250" y="375" width="125" height="125"/>
    <rect class="cls-4" x="375" y="500" width="125" height="125"/>
    <rect class="cls-4" x="250" y="500" width="125" height="125"/>
  </g>
</svg>
